<svg width="47" height="20" viewBox="0 0 47 20" fill="none" xmlns="http://www.w3.org/2000/svg">
<rect width="47" height="20" fill="#656AD9"/>
<path d="M7.53781 3.8H8.89781V8.312H8.96181C9.06848 8.03467 9.20715 7.80533 9.37781 7.624C9.55915 7.432 9.76181 7.27733 9.98581 7.16C10.2098 7.04267 10.4445 6.95733 10.6898 6.904C10.9458 6.85067 11.2018 6.824 11.4578 6.824C11.9911 6.824 12.4818 6.92533 12.9298 7.128C13.3778 7.32 13.7618 7.59733 14.0818 7.96C14.4125 8.32267 14.6685 8.76 14.8498 9.272C15.0311 9.784 15.1218 10.3547 15.1218 10.984C15.1218 11.624 15.0311 12.2053 14.8498 12.728C14.6685 13.24 14.4125 13.6827 14.0818 14.056C13.7618 14.4187 13.3778 14.7013 12.9298 14.904C12.4818 15.096 11.9911 15.192 11.4578 15.192C10.1885 15.192 9.35648 14.696 8.96181 13.704H8.89781V15H7.53781V3.8ZM8.89781 11.8C8.89781 12.152 8.95115 12.488 9.05781 12.808C9.17515 13.1173 9.33515 13.3893 9.53781 13.624C9.74048 13.848 9.97515 14.0293 10.2418 14.168C10.5191 14.296 10.8125 14.36 11.1218 14.36C11.4525 14.36 11.7671 14.3013 12.0658 14.184C12.3751 14.056 12.6418 13.8587 12.8658 13.592C13.0898 13.3253 13.2658 12.9787 13.3938 12.552C13.5325 12.1253 13.6018 11.6133 13.6018 11.016C13.6018 10.408 13.5325 9.89067 13.3938 9.464C13.2658 9.03733 13.0845 8.69067 12.8498 8.424C12.6258 8.14667 12.3645 7.94933 12.0658 7.832C11.7671 7.704 11.4525 7.64 11.1218 7.64C10.8231 7.64 10.5405 7.704 10.2738 7.832C10.0071 7.94933 9.77248 8.13067 9.56981 8.376C9.36715 8.61067 9.20181 8.89867 9.07381 9.24C8.95648 9.58133 8.89781 9.97067 8.89781 10.408V11.8ZM24.2981 11.352V11.016C24.2981 10.3013 24.1967 9.68267 23.9941 9.16C23.7914 8.63733 23.5141 8.20533 23.1621 7.864C22.8207 7.52267 22.4207 7.26667 21.9621 7.096C21.5034 6.92533 21.0181 6.84 20.5061 6.84C19.9621 6.84 19.4607 6.936 19.0021 7.128C18.5434 7.30933 18.1434 7.58133 17.8021 7.944C17.4607 8.296 17.1941 8.728 17.0021 9.24C16.8101 9.74133 16.7141 10.312 16.7141 10.952C16.7141 11.4853 16.7941 12.008 16.9541 12.52C17.1247 13.0213 17.3754 13.4747 17.7061 13.88C18.0474 14.2747 18.4741 14.5947 18.9861 14.84C19.5087 15.0747 20.1221 15.192 20.8261 15.192C21.5087 15.192 22.1381 15.0747 22.7141 14.84C23.2901 14.5947 23.7914 14.248 24.2181 13.8L23.7061 13.288C23.4821 13.48 23.2687 13.656 23.0661 13.816C22.8741 13.976 22.6767 14.1093 22.4741 14.216C22.2714 14.3227 22.0581 14.408 21.8341 14.472C21.6207 14.5253 21.3807 14.552 21.1141 14.552C20.8154 14.552 20.4954 14.5093 20.1541 14.424C19.8234 14.328 19.5141 14.1627 19.2261 13.928C18.9381 13.6933 18.6981 13.368 18.5061 12.952C18.3141 12.536 18.2181 12.0027 18.2181 11.352H24.2981ZM18.2181 10.712C18.2181 10.2853 18.2607 9.87467 18.3461 9.48C18.4421 9.07467 18.5807 8.71733 18.7621 8.408C18.9541 8.09867 19.1941 7.85333 19.4821 7.672C19.7701 7.48 20.1114 7.384 20.5061 7.384C21.2634 7.384 21.8501 7.68267 22.2661 8.28C22.6927 8.86667 22.9061 9.67733 22.9061 10.712H18.2181ZM25.5816 7.64V7H26.9736V4.536H28.3336V7H30.2696V7.64H28.3336V12.952C28.3336 13.08 28.3389 13.2293 28.3496 13.4C28.3602 13.56 28.3922 13.7147 28.4456 13.864C28.4989 14.0027 28.5789 14.12 28.6856 14.216C28.8029 14.312 28.9629 14.36 29.1656 14.36C29.4216 14.36 29.6349 14.264 29.8056 14.072C29.9762 13.88 30.1149 13.672 30.2216 13.448L30.9736 14.216C30.4509 14.7387 29.8589 15 29.1976 15C28.9202 15 28.6482 14.952 28.3816 14.856C28.1149 14.76 27.8749 14.616 27.6616 14.424C27.4589 14.2213 27.2936 13.9653 27.1656 13.656C27.0376 13.3467 26.9736 12.984 26.9736 12.568V7.64H25.5816ZM35.3256 6.824C36.1042 6.824 36.7069 6.936 37.1336 7.16C37.5602 7.37333 37.8696 7.656 38.0616 8.008C38.2642 8.36 38.3816 8.76533 38.4136 9.224C38.4456 9.68267 38.4616 10.152 38.4616 10.632V15H37.1656V14.216C36.8562 14.5147 36.4616 14.7547 35.9816 14.936C35.5016 15.1067 35.0216 15.192 34.5416 15.192C34.0829 15.192 33.6776 15.112 33.3256 14.952C32.9736 14.792 32.6802 14.584 32.4456 14.328C32.2109 14.072 32.0349 13.784 31.9176 13.464C31.8002 13.144 31.7416 12.8187 31.7416 12.488C31.7416 12.1467 31.8056 11.8053 31.9336 11.464C32.0616 11.1227 32.2536 10.8187 32.5096 10.552C32.7656 10.2747 33.0802 10.0507 33.4536 9.88C33.8269 9.70933 34.2536 9.624 34.7336 9.624C35.2136 9.624 35.6669 9.72 36.0936 9.912C36.5309 10.0933 36.8882 10.3547 37.1656 10.696V10.008C37.1656 9.13333 37.0322 8.48267 36.7656 8.056C36.5096 7.62933 36.0349 7.416 35.3416 7.416C35.0429 7.416 34.7816 7.45333 34.5576 7.528C34.3336 7.60267 34.1309 7.70933 33.9496 7.848C33.7789 7.976 33.6189 8.14133 33.4696 8.344C33.3202 8.536 33.1709 8.75467 33.0216 9L32.1896 8.168C32.3389 8.008 32.4936 7.848 32.6536 7.688C32.8242 7.528 33.0269 7.384 33.2616 7.256C33.5069 7.128 33.7949 7.02667 34.1256 6.952C34.4562 6.86667 34.8562 6.824 35.3256 6.824ZM37.1656 11.832C37.1122 11.704 37.0322 11.5547 36.9256 11.384C36.8296 11.2133 36.7016 11.048 36.5416 10.888C36.3816 10.728 36.1896 10.5947 35.9656 10.488C35.7416 10.3707 35.4749 10.312 35.1656 10.312C34.8562 10.312 34.5736 10.376 34.3176 10.504C34.0616 10.6213 33.8429 10.7813 33.6616 10.984C33.4909 11.176 33.3576 11.4053 33.2616 11.672C33.1656 11.9387 33.1176 12.216 33.1176 12.504C33.1176 12.8453 33.1762 13.144 33.2936 13.4C33.4216 13.6453 33.5816 13.8587 33.7736 14.04C33.9656 14.2107 34.1789 14.3387 34.4136 14.424C34.6482 14.5093 34.8722 14.552 35.0856 14.552C35.2882 14.552 35.4909 14.5147 35.6936 14.44C35.9069 14.3653 36.1042 14.264 36.2856 14.136C36.4776 13.9973 36.6482 13.8373 36.7976 13.656C36.9469 13.4747 37.0696 13.2773 37.1656 13.064V11.832Z" fill="white"/>
</svg>
