<svg width="172" height="44" viewBox="0 0 172 44" fill="none" xmlns="http://www.w3.org/2000/svg">
<path d="M55.8492 41.4739C57.5219 43.1466 59.7066 44 62.4376 44C64.2468 44 65.7488 43.5221 66.9095 42.5663C68.0701 41.6105 68.6504 40.3815 68.6504 38.9137C68.6846 35.6366 65.3733 34.3052 62.8813 33.5201C61.1404 32.8715 59.7408 32.0522 59.7408 30.8233C59.7408 29.4237 60.9014 28.6727 62.6765 28.6727C64.281 28.6727 66.0561 29.253 67.046 30.2088L68.3773 27.8193C66.9777 26.5562 65.1002 25.9076 62.7789 25.9076C59.2287 25.9076 56.5661 27.751 56.5661 30.8916C56.5661 34.2369 59.8091 35.3976 62.301 36.3193C64.042 36.9679 65.4416 37.7872 65.4416 38.9819C65.4416 40.3815 64.2809 41.2349 62.5058 41.2349C60.4918 41.2349 58.8191 40.5522 57.4195 39.2209L55.8492 41.4739Z" fill="white"/>
<path d="M73.3021 37.2751C73.3021 40.7229 74.9065 42.3956 76.6475 43.1466C77.9105 43.6586 78.8663 43.7611 79.9246 43.7611C80.1635 43.7611 80.539 43.7269 81.0852 43.6586V40.7229C80.3683 40.8594 79.4467 40.8594 78.4567 40.4157C77.5009 39.9719 76.6133 38.9478 76.6133 36.8996V29.1847H80.778V26.4879H76.6133V21.5723H73.3703V26.4879H71.0491V29.1847H73.3021V37.2751Z" fill="white"/>
<path d="M87.7976 43.5904V36.4217C87.7976 34.5442 88.2414 32.9056 89.1289 31.506C90.0506 30.1064 91.3478 29.3896 93.0888 29.3896C93.5325 29.3896 93.8739 29.4237 94.0446 29.4578V26.1807C93.6691 26.1466 93.396 26.1124 93.157 26.1124C90.5968 26.1124 88.5145 28.0582 87.661 30.6867H87.5928L87.6952 29.4237V26.3173H84.4863V43.5904H87.7976Z" fill="white"/>
<path d="M95.661 34.9197C95.661 37.5141 96.5485 39.6647 98.3578 41.4056C100.167 43.1466 102.386 44 104.98 44C107.575 44 109.759 43.1466 111.569 41.4056C113.378 39.6647 114.265 37.5141 114.265 34.9197C114.265 32.3253 113.378 30.1747 111.569 28.4679C109.759 26.761 107.575 25.9076 104.946 25.9076C102.352 25.9076 100.167 26.761 98.3578 28.502C96.5485 30.2088 95.661 32.3594 95.661 34.9197ZM99.0405 34.9197C99.0405 33.1446 99.6208 31.6767 100.747 30.5161C101.908 29.3554 103.308 28.7751 104.98 28.7751C106.619 28.7751 108.018 29.3554 109.179 30.5161C110.34 31.6767 110.92 33.1446 110.92 34.9197C110.92 36.6948 110.34 38.1627 109.179 39.3574C108.018 40.5522 106.619 41.1325 104.98 41.1325C103.308 41.1325 101.908 40.5522 100.747 39.3916C99.6208 38.1968 99.0405 36.7289 99.0405 34.9197Z" fill="white"/>
<path d="M121.567 43.5904V35.5341C121.567 33.7932 122.045 32.257 123.001 30.9257C123.957 29.5944 125.22 28.9116 126.756 28.9116C129.112 28.9116 129.726 30.5161 129.726 33.247V43.5904H133.037V35.5341C133.037 33.7932 133.515 32.257 134.437 30.9257C135.393 29.5944 136.622 28.9116 138.158 28.9116C140.513 28.9116 141.196 30.4819 141.196 33.247V43.5904H144.507V32.5301C144.507 28.0582 142.732 25.9076 138.806 25.9076C137.475 25.9076 136.212 26.2831 135.086 27.0683C133.959 27.8534 133.174 28.7751 132.662 29.8333H132.594C132.013 27.2048 130.272 25.9076 127.439 25.9076C126.142 25.9076 124.913 26.3173 123.786 27.1365C122.66 27.9558 121.875 28.9116 121.431 29.9699H121.363L121.465 28.6727V26.3173H118.256V43.5904H121.567Z" fill="white"/>
<path d="M151.132 22.8353C152.056 22.8353 152.805 22.0864 152.805 21.1626C152.805 20.2388 152.056 19.4899 151.132 19.4899H151.064C150.14 19.4899 149.391 20.2388 149.391 21.1626C149.391 22.0864 150.14 22.8353 151.064 22.8353H151.132ZM152.77 43.5904V26.3173H149.459V43.5904H152.77Z" fill="white"/>
<path d="M159.635 43.5904L163.254 37.8213L163.766 36.8996H163.834L164.38 37.8213L167.999 43.5904H171.754L165.848 34.7149L171.412 26.3173H167.623L164.414 31.5743C164.244 31.8815 164.073 32.2229 163.834 32.5984H163.766L163.219 31.5743L160.011 26.3173H156.221L161.786 34.7149L155.88 43.5904H159.635Z" fill="white"/>
<path d="M36.8479 43.5904L43.8459 18.922L50.7757 43.5904H54.2576L45.621 14.835H42.0367L33.4001 43.5904H36.8479Z" fill="white"/>
<path d="M60.4573 5.38291C61.2803 6.83675 61.4604 8.68906 60.9003 10.9238C60.3378 13.1685 59.0454 15.7106 57.06 18.3912C53.0918 23.7491 46.5217 29.4352 38.2661 34.1084C30.0105 38.7815 21.7538 41.4882 15.1177 42.133C11.7976 42.4556 8.95287 42.2554 6.73874 41.5824C4.53448 40.9125 3.03902 39.8047 2.21606 38.3509C1.39311 36.8971 1.21301 35.0448 1.77305 32.8101C2.33559 30.5653 3.62801 28.0232 5.61334 25.3426C9.58161 19.9847 16.1517 14.2986 24.4073 9.62545C32.6629 4.95229 40.9195 2.24562 47.5557 1.6008C50.8757 1.27819 53.7205 1.47842 55.9346 2.15138C58.1389 2.82134 59.6344 3.92908 60.4573 5.38291Z" stroke="white" stroke-width="2.9"/>
</svg>
