<svg width="101" height="35" viewBox="0 0 101 35" fill="none" xmlns="http://www.w3.org/2000/svg">
<path d="M35.1436 28.2711C36.0835 29.2111 37.3113 29.6906 38.8459 29.6906C39.8626 29.6906 40.7067 29.4221 41.3589 28.885C42.0111 28.3478 42.3372 27.6572 42.3372 26.8324C42.3564 24.9908 40.4957 24.2426 39.0953 23.8014C38.117 23.4369 37.3304 22.9765 37.3304 22.286C37.3304 21.4994 37.9827 21.0774 38.9802 21.0774C39.8818 21.0774 40.8793 21.4035 41.4356 21.9407L42.1838 20.5978C41.3973 19.8881 40.3422 19.5236 39.0377 19.5236C37.0427 19.5236 35.5464 20.5595 35.5464 22.3243C35.5464 24.2043 37.3688 24.8565 38.7692 25.3744C39.7475 25.7389 40.534 26.1993 40.534 26.8707C40.534 27.6572 39.8818 28.1368 38.8843 28.1368C37.7525 28.1368 36.8125 27.7531 36.026 27.005L35.1436 28.2711Z" fill="white"/>
<path d="M44.9512 25.9116C44.9512 27.8491 45.8529 28.789 46.8312 29.2111C47.541 29.4988 48.0781 29.5564 48.6728 29.5564C48.8071 29.5564 49.0181 29.5372 49.325 29.4988V27.8491C48.9222 27.9258 48.4042 27.9258 47.8479 27.6764C47.3108 27.427 46.812 26.8515 46.812 25.7006V21.3652H49.1524V19.8497H46.812V17.0873H44.9896V19.8497H43.6852V21.3652H44.9512V25.9116Z" fill="white"/>
<path d="M53.097 29.4604V25.432C53.097 24.3769 53.3464 23.4561 53.8452 22.6696C54.3631 21.8831 55.0921 21.4803 56.0704 21.4803C56.3198 21.4803 56.5116 21.4994 56.6076 21.5186V19.677C56.3965 19.6579 56.2431 19.6387 56.1088 19.6387C54.6701 19.6387 53.4999 20.7321 53.0203 22.2092H52.9819L53.0395 21.4994V19.7538H51.2363V29.4604H53.097Z" fill="white"/>
<path d="M57.5159 24.5879C57.5159 26.0458 58.0147 27.2544 59.0314 28.2327C60.0481 29.2111 61.295 29.6906 62.7529 29.6906C64.2108 29.6906 65.4385 29.2111 66.4552 28.2327C67.4719 27.2544 67.9707 26.0458 67.9707 24.5879C67.9707 23.13 67.4719 21.9215 66.4552 20.9623C65.4385 20.0032 64.2108 19.5236 62.7337 19.5236C61.2758 19.5236 60.0481 20.0032 59.0314 20.9815C58.0147 21.9407 57.5159 23.1492 57.5159 24.5879ZM59.415 24.5879C59.415 23.5904 59.7411 22.7655 60.3742 22.1133C61.0264 21.4611 61.8129 21.135 62.7529 21.135C63.6737 21.135 64.4602 21.4611 65.1124 22.1133C65.7647 22.7655 66.0908 23.5904 66.0908 24.5879C66.0908 25.5855 65.7647 26.4103 65.1124 27.0817C64.4602 27.7531 63.6737 28.0793 62.7529 28.0793C61.8129 28.0793 61.0264 27.7531 60.3742 27.1009C59.7411 26.4295 59.415 25.6046 59.415 24.5879Z" fill="white"/>
<path d="M72.0741 29.4604V24.9332C72.0741 23.9549 72.3427 23.0916 72.8798 22.3435C73.4169 21.5954 74.1267 21.2117 74.9899 21.2117C76.3136 21.2117 76.6589 22.1133 76.6589 23.648V29.4604H78.5196V24.9332C78.5196 23.9549 78.7882 23.0916 79.3061 22.3435C79.8433 21.5954 80.5339 21.2117 81.3971 21.2117C82.7207 21.2117 83.1044 22.0941 83.1044 23.648V29.4604H84.9652V23.2451C84.9652 20.7321 83.9676 19.5236 81.7616 19.5236C81.0134 19.5236 80.3037 19.7346 79.6706 20.1758C79.0376 20.617 78.5964 21.135 78.3086 21.7296H78.2703C77.9441 20.2525 76.9658 19.5236 75.3736 19.5236C74.6446 19.5236 73.9541 19.7538 73.321 20.2142C72.688 20.6746 72.2467 21.2117 71.9974 21.8064H71.959L72.0166 21.0774V19.7538H70.2133V29.4604H72.0741Z" fill="white"/>
<path d="M88.6879 17.7971C89.207 17.7971 89.6279 17.3763 89.6279 16.8571C89.6279 16.338 89.207 15.9172 88.6879 15.9172H88.6495C88.1304 15.9172 87.7096 16.338 87.7096 16.8571C87.7096 17.3763 88.1304 17.7971 88.6495 17.7971H88.6879ZM89.6087 29.4604V19.7538H87.7479V29.4604H89.6087Z" fill="white"/>
<path d="M93.4663 29.4604L95.4997 26.2185L95.7875 25.7006H95.8258L96.1328 26.2185L98.1662 29.4604H100.276L96.9576 24.4728L100.084 19.7538H97.9552L96.1519 22.708C96.056 22.8806 95.9601 23.0725 95.8258 23.2835H95.7875L95.4805 22.708L93.6773 19.7538H91.548L94.6748 24.4728L91.3562 29.4604H93.4663Z" fill="white"/>
<path d="M24.4658 29.4604L28.3983 15.598L32.2925 29.4604H34.2492L29.3958 13.3013H27.3816L22.5283 29.4604H24.4658Z" fill="white"/>
<path d="M37.6836 8.01763C38.1369 8.81843 38.2391 9.84338 37.9268 11.0893C37.6131 12.3412 36.8911 13.763 35.7783 15.2655C33.5541 18.2686 29.8687 21.459 25.2347 24.0821C20.6008 26.7052 15.9686 28.223 12.2491 28.5844C10.3881 28.7653 8.7975 28.6526 7.56264 28.2772C6.33371 27.9037 5.50751 27.2886 5.05421 26.4878C4.6009 25.687 4.49872 24.662 4.81095 23.4161C5.1247 22.1642 5.84669 20.7424 6.95951 19.2399C9.18371 16.2368 12.8691 13.0464 17.5031 10.4233C22.137 7.80021 26.7692 6.2824 30.4887 5.92098C32.3497 5.74015 33.9403 5.85285 35.1752 6.22818C36.4041 6.6017 37.2303 7.21682 37.6836 8.01763Z" stroke="white" stroke-width="1.74392"/>
</svg>
