<svg width="60" height="60" viewBox="0 0 60 60" fill="none" xmlns="http://www.w3.org/2000/svg">
<path d="M50.906 29.5C50.906 30.1746 50.9682 31.3417 50.906 32C49.8989 42.6599 40.9234 51 30 51C28.9814 51 27.9798 50.9275 27 50.7873M34 30C34 32.2091 32.2091 34 30 34M34 30C34 27.7909 32.2091 26 30 26M34 30C35.5 32 38 31 40 32M30 34C27.7909 34 26 32.2091 26 30C26 27.7909 27.7909 26 30 26M30 34C31.516 35.9257 30 37.5 31 39.5M30 26C30.9508 23.6153 30.0318 22.298 29 20M6.14833 13.5C2.90211 18.1837 1 23.8697 1 30C1 34.2798 1.92711 38.3431 3.59145 42M12.3341 7C17.2257 3.23726 23.3516 1 30 1C34.0857 1 37.9741 1.84493 41.5 3.36959M44.706 5C53.2604 10.0429 59 19.3512 59 30C59 34.0857 58.1551 37.9741 56.6304 41.5M50.5 25.424C48.4116 16.0266 40.0264 9 30 9C18.402 9 9 18.402 9 30C9 38.1789 13.6757 45.2658 20.5 48.7334M51.5 49.4618C46.1938 55.3201 38.5267 59 30 59C19.8975 59 11.0015 53.8342 5.80943 46M32 26.5C33.5382 25.1575 33.5 23 36 22M34 28C35.8839 26.3781 37.3624 26.4877 39 26.5M33 32.5C34.3509 34.7119 35.3009 35.5788 37 36.5M28 33.5C26.124 34.4174 25.44 35.4724 25 38.5M26.5 31.5C23.5 30.5 23 34 21 33M26.5 29C25 28 23.2053 26.7512 20.5 27.5M27.5 27C27.5 24 24 23.5 24.5 21.5M43 30C43 37.1797 37.1797 43 30 43C22.8203 43 17 37.1797 17 30C17 22.8203 22.8203 17 30 17C37.1797 17 43 22.8203 43 30ZM11 11C11 12.6569 9.65685 14 8 14C6.34315 14 5 12.6569 5 11C5 9.34315 6.34315 8 8 8C9.65685 8 11 9.34315 11 11ZM27 50C27 51.6569 25.6569 53 24 53C22.3431 53 21 51.6569 21 50C21 48.3431 22.3431 47 24 47C25.6569 47 27 48.3431 27 50ZM58 44C58 45.6569 56.6569 47 55 47C53.3431 47 52 45.6569 52 44C52 42.3431 53.3431 41 55 41C56.6569 41 58 42.3431 58 44ZM45 4C45 5.10457 44.1046 6 43 6C41.8954 6 41 5.10457 41 4C41 2.89543 41.8954 2 43 2C44.1046 2 45 2.89543 45 4ZM53 27C53 28.1046 52.1046 29 51 29C49.8954 29 49 28.1046 49 27C49 25.8954 49.8954 25 51 25C52.1046 25 53 25.8954 53 27ZM7 44C7 45.1046 6.10457 46 5 46C3.89543 46 3 45.1046 3 44C3 42.8954 3.89543 42 5 42C6.10457 42 7 42.8954 7 44Z" stroke="#52458A" stroke-width="2"/>
</svg>
