<svg width="65" height="62" viewBox="0 0 65 62" fill="none" xmlns="http://www.w3.org/2000/svg">
<path d="M32.3023 1L33.1734 0.508983C32.9962 0.19453 32.6632 0 32.3023 0C31.9413 0 31.6084 0.19453 31.4311 0.508983L32.3023 1ZM42.7491 19.5344L41.8779 20.0254C42.0206 20.2786 42.2664 20.4572 42.5513 20.5147L42.7491 19.5344ZM63.6046 23.7424L64.3408 24.4192C64.585 24.1535 64.6672 23.7767 64.5556 23.4334C64.4441 23.0901 64.1562 22.8336 63.8024 22.7622L63.6046 23.7424ZM49.2055 39.4054L48.4693 38.7286C48.2726 38.9425 48.1788 39.2315 48.2121 39.5202L49.2055 39.4054ZM51.6482 60.5405L51.232 61.4498C51.5602 61.6 51.9439 61.5617 52.2359 61.3495C52.528 61.1373 52.683 60.7842 52.6416 60.4257L51.6482 60.5405ZM32.3023 51.6863L32.7184 50.777C32.4542 50.656 32.1504 50.656 31.8861 50.777L32.3023 51.6863ZM12.9564 60.5405L11.963 60.4257C11.9216 60.7842 12.0766 61.1373 12.3686 61.3495C12.6606 61.5617 13.0444 61.6 13.3726 61.4498L12.9564 60.5405ZM15.399 39.4054L16.3924 39.5202C16.4258 39.2315 16.3319 38.9425 16.1352 38.7286L15.399 39.4054ZM1 23.7424L0.802216 22.7622C0.448383 22.8336 0.160487 23.0901 0.0489435 23.4334C-0.0626003 23.7767 0.0195224 24.1535 0.263815 24.4192L1 23.7424ZM21.8555 19.5344L22.0533 20.5147C22.3382 20.4572 22.584 20.2786 22.7267 20.0254L21.8555 19.5344ZM40.8891 40.1141V41.1141H41.8637L41.8888 40.1399L40.8891 40.1141ZM23.8891 40.1141L22.8894 40.1399L22.9146 41.1141H23.8891V40.1141ZM40.8891 36.6141L41.8589 36.3701L40.8891 36.6141ZM23.8891 36.6141L22.9193 36.3701L23.8891 36.6141ZM31.4311 1.49102L41.8779 20.0254L43.6202 19.0434L33.1734 0.508983L31.4311 1.49102ZM42.5513 20.5147L63.4068 24.7227L63.8024 22.7622L42.9468 18.5542L42.5513 20.5147ZM62.8684 23.0657L48.4693 38.7286L49.9417 40.0821L64.3408 24.4192L62.8684 23.0657ZM48.2121 39.5202L50.6548 60.6553L52.6416 60.4257L50.1989 39.2906L48.2121 39.5202ZM52.0643 59.6312L32.7184 50.777L31.8861 52.5956L51.232 61.4498L52.0643 59.6312ZM31.8861 50.777L12.5402 59.6312L13.3726 61.4498L32.7184 52.5956L31.8861 50.777ZM13.9498 60.6553L16.3924 39.5202L14.4057 39.2906L11.963 60.4257L13.9498 60.6553ZM16.1352 38.7286L1.73618 23.0657L0.263815 24.4192L14.6629 40.0821L16.1352 38.7286ZM1.19778 24.7227L22.0533 20.5147L21.6577 18.5542L0.802216 22.7622L1.19778 24.7227ZM22.7267 20.0254L33.1734 1.49102L31.4311 0.508983L20.9844 19.0434L22.7267 20.0254ZM36.8891 25.6141C36.8891 27.0463 36.421 28.1533 35.6746 28.8996C34.9283 29.646 33.8214 30.1141 32.3891 30.1141V32.1141C34.2706 32.1141 35.9137 31.4891 37.0889 30.3139C38.2641 29.1387 38.8891 27.4956 38.8891 25.6141H36.8891ZM32.3891 30.1141C30.9569 30.1141 29.85 29.646 29.1036 28.8996C28.3572 28.1533 27.8891 27.0463 27.8891 25.6141H25.8891C25.8891 27.4956 26.5142 29.1387 27.6894 30.3139C28.8646 31.4891 30.5076 32.1141 32.3891 32.1141V30.1141ZM27.8891 25.6141C27.8891 24.1819 28.3572 23.0749 29.1036 22.3286C29.85 21.5822 30.9569 21.1141 32.3891 21.1141V19.1141C30.5076 19.1141 28.8646 19.7392 27.6894 20.9144C26.5142 22.0896 25.8891 23.7326 25.8891 25.6141H27.8891ZM32.3891 21.1141C33.8214 21.1141 34.9283 21.5822 35.6746 22.3286C36.421 23.0749 36.8891 24.1819 36.8891 25.6141H38.8891C38.8891 23.7326 38.2641 22.0896 37.0889 20.9144C35.9137 19.7392 34.2706 19.1141 32.3891 19.1141V21.1141ZM40.8891 39.1141H23.8891V41.1141H40.8891V39.1141ZM32.3891 32.1141C36.492 32.1141 39.3401 34.5564 39.9193 36.8582L41.8589 36.3701C41.0099 32.9964 37.2052 30.1141 32.3891 30.1141V32.1141ZM39.9193 36.8582C39.9007 36.7841 39.9071 36.765 39.9137 36.9053C39.9185 37.0057 39.9218 37.1427 39.9237 37.3093C39.9274 37.641 39.925 38.0592 39.9199 38.4738C39.9148 38.887 39.9072 39.2909 39.9008 39.5918C39.8977 39.7422 39.8948 39.8666 39.8928 39.9533C39.8917 39.9966 39.8909 40.0305 39.8903 40.0535C39.89 40.065 39.8898 40.0738 39.8897 40.0797C39.8896 40.0826 39.8895 40.0848 39.8895 40.0863C39.8895 40.087 39.8895 40.0875 39.8895 40.0879C39.8895 40.088 39.8895 40.0882 39.8895 40.0882C39.8894 40.0883 39.8894 40.0883 39.8894 40.0883C39.8894 40.0883 39.8894 40.0883 40.8891 40.1141C41.8888 40.1399 41.8888 40.1398 41.8888 40.1398C41.8888 40.1398 41.8888 40.1397 41.8888 40.1397C41.8888 40.1396 41.8888 40.1394 41.8888 40.1392C41.8888 40.1388 41.8888 40.1381 41.8888 40.1373C41.8889 40.1357 41.8889 40.1334 41.889 40.1303C41.8892 40.1241 41.8894 40.115 41.8897 40.1032C41.8903 40.0795 41.8911 40.0449 41.8922 40.0008C41.8943 39.9126 41.8972 39.7864 41.9004 39.6341C41.9068 39.3296 41.9146 38.9194 41.9197 38.4983C41.9249 38.0785 41.9275 37.6421 41.9236 37.287C41.9216 37.1103 41.9179 36.9459 41.9115 36.8105C41.907 36.7149 41.898 36.5254 41.8589 36.3701L39.9193 36.8582ZM23.8891 40.1141C24.8888 40.0883 24.8888 40.0883 24.8888 40.0883C24.8888 40.0883 24.8888 40.0883 24.8888 40.0882C24.8888 40.0882 24.8888 40.088 24.8888 40.0879C24.8888 40.0875 24.8887 40.087 24.8887 40.0863C24.8887 40.0848 24.8886 40.0826 24.8886 40.0797C24.8884 40.0738 24.8882 40.065 24.8879 40.0535C24.8873 40.0305 24.8865 39.9966 24.8855 39.9533C24.8834 39.8666 24.8806 39.7422 24.8774 39.5918C24.871 39.2909 24.8634 38.887 24.8583 38.4738C24.8533 38.0592 24.8508 37.641 24.8545 37.3093C24.8564 37.1427 24.8597 37.0057 24.8645 36.9053C24.8711 36.765 24.8775 36.7841 24.8589 36.8582L22.9193 36.3701C22.8803 36.5254 22.8713 36.7149 22.8667 36.8105C22.8603 36.9459 22.8566 37.1103 22.8547 37.287C22.8507 37.6421 22.8534 38.0785 22.8585 38.4983C22.8637 38.9194 22.8714 39.3296 22.8778 39.6341C22.881 39.7864 22.8839 39.9126 22.886 40.0008C22.8871 40.0449 22.8879 40.0795 22.8885 40.1032C22.8888 40.115 22.889 40.1241 22.8892 40.1303C22.8893 40.1334 22.8893 40.1357 22.8894 40.1373C22.8894 40.1381 22.8894 40.1388 22.8894 40.1392C22.8894 40.1394 22.8894 40.1396 22.8894 40.1397C22.8894 40.1397 22.8894 40.1398 22.8894 40.1398C22.8894 40.1398 22.8894 40.1399 23.8891 40.1141ZM24.8589 36.8582C25.4381 34.5564 28.2862 32.1141 32.3891 32.1141V30.1141C27.573 30.1141 23.7683 32.9964 22.9193 36.3701L24.8589 36.8582ZM23.3891 46.1141H41.3891V44.1141H23.3891V46.1141Z" fill="#52458A"/>
</svg>
