<svg width="57" height="55" viewBox="0 0 57 55" fill="none" xmlns="http://www.w3.org/2000/svg">
<path d="M1 12.5V53.5H56V12.5M1 12.5V3.5H56V12.5M1 12.5H56M12 0V8M29 0V8M45 0V8M16 20.5H21V25.5H16V20.5ZM6 20.5H11V25.5H6V20.5ZM6 30.5H11V35.5H6V30.5ZM6 40.5H11V45.5H6V40.5ZM16 40.5H21V45.5H16V40.5ZM26 40.5H31V45.5H26V40.5ZM36 40.5H41V45.5H36V40.5ZM46 40.5H51V45.5H46V40.5ZM46 30.5H51V35.5H46V30.5ZM46 20.5H51V25.5H46V20.5ZM16 30.5H21V35.5H16V30.5ZM36 20.5H41V25.5H36V20.5ZM26 20.5H31V25.5H26V20.5ZM26 30.5H31V35.5H26V30.5ZM36 30.5H41V35.5H36V30.5Z" stroke="#52458A" stroke-width="2"/>
</svg>
