<svg width="64" height="62" viewBox="0 0 64 62" fill="none" xmlns="http://www.w3.org/2000/svg">
<path d="M45.0001 18L52.0001 13.5L63 27L56.5 32.5M45.0001 18L35.5001 17.5L27 19.625M45.0001 18L56.5 32.5M52.0001 42L36.5 26.5L30 26C29.3333 27.1667 27.7 30 26.5 32C25 34.5 23.5001 34.5 21.5001 33.5C19.9001 32.7 20.1667 30.5 20.5001 29.5L25.5001 20L27 19.625M52.0001 42C52.6667 42.8333 53.6001 44.9 52.0001 46.5C50.4 48.1 48.3333 47.1667 47.5 46.5M52.0001 42L56.5 32.5M47.5 46.5L39.5 38.5M47.5 46.5C48.1667 47.3333 49.1 49.4 47.5 51C45.9 52.6 43.8333 51.6667 43 51M43 51L37.5 45.5M43 51C43.6667 52 44.6 54.3 43 55.5C41.4 56.7 39.6667 56.3333 39 56M39 56L35.5001 52.5M39 56C39.5 57 39.8369 58.6631 38.5 60C37 61.5 34.7322 60.5 32.7322 58.5M13.9256 41.8794L7.5 33.5M7.5 33.5L1 28L13 13.5L20.5001 18M7.5 33.5L20.5001 18M20.5001 18L27 19.625M32 13V1M38.5 13L47.5 4M25.5001 13L16.5 4M17.4023 47.2225L19.3998 45.2728C20.6357 44.0666 20.6357 42.1109 19.3998 40.9046C18.164 39.6984 16.1602 39.6984 14.9244 40.9046L12.9268 42.8542C11.691 44.0605 11.691 46.0162 12.9268 47.2225C14.1627 48.4287 16.1665 48.4287 17.4023 47.2225ZM21.1011 52.349L24.465 49.0963C25.7009 47.8901 25.6958 45.9087 24.4599 44.7024C23.224 43.4962 21.2203 43.4962 19.9844 44.7024L16.6256 47.9808C15.3897 49.187 15.3897 51.1428 16.6256 52.349C17.8614 53.5553 19.8652 53.5552 21.1011 52.349ZM25.9676 56.366L29.0698 53.3381C30.3057 52.1318 30.3057 50.1761 29.0698 48.9699C27.834 47.7636 25.8302 47.7636 24.5943 48.9699L21.4921 51.9978C20.2562 53.204 20.2562 55.1597 21.4921 56.366C22.728 57.5722 24.7317 57.5722 25.9676 56.366ZM31.0977 60.0953L33.0731 58.1672C34.309 56.961 34.309 55.0053 33.0731 53.799C31.8372 52.5928 29.8335 52.5928 28.5976 53.799L26.6222 55.7271C25.3863 56.9333 25.3863 58.8891 26.6222 60.0953C27.858 61.3016 29.8618 61.3016 31.0977 60.0953Z" stroke="#52458A" stroke-width="2" stroke-linecap="round" stroke-linejoin="round"/>
</svg>
