<svg width="64" height="60" viewBox="0 0 64 60" fill="none" xmlns="http://www.w3.org/2000/svg">
<path d="M49 14.5C52.8333 16 60.8 21.1 62 29.5C63.2 37.9 58.5 43.6667 56 45.5V59H34M34 59V53H28C26.6667 53.1667 24 52.4 24 48V42H18.5L26.5 31.5M34 59H19V53H14C12.3333 53.1667 9 52.4 9 48V42H3L11 32C10.8333 29.1667 11.7 22.6 16.5 19M27.25 25.5H39M33 22.5V18M33 18C31.5 18 31 16.5 31 16.5M33 18C34.5 18 35 16.5 35 16.5M32.5 5H33.5M21.5 16H22.5M43.5 16H44.5M27.25 6.04077L27.75 6.9068M38.25 6.90674L38.75 6.04071M23.0407 10.25L23.9067 10.75M42.0933 21.25L42.9593 21.75M23.0407 21.75L23.9067 21.25M42.0933 10.75L42.9593 10.25M49 17C49 25.8366 41.8366 33 33 33C24.1634 33 17 25.8366 17 17C17 8.16344 24.1634 1 33 1C41.8366 1 49 8.16344 49 17ZM40 16C40 12.134 36.866 9 33 9C29.134 9 26 12.134 26 16C26 18.3787 27.1865 20.4804 29 21.7453C29.7519 22.2698 30 28.5 30 28.5C32.2061 28.9414 34 29 36 28.5C36 28.5 36.2481 22.2698 37 21.7453C38.8135 20.4804 40 18.3787 40 16Z" stroke="#52458A" stroke-width="2"/>
</svg>
