<svg width="316" height="449" viewBox="0 0 316 449" fill="none" xmlns="http://www.w3.org/2000/svg">
<path d="M-167.627 349.235C-183.266 322.148 -173.468 283.607 -144.62 243.062C-115.8 202.558 -68.0772 160.229 -8.27332 125.701C51.5306 91.1731 112.05 71.0084 161.538 66.3018C211.075 61.5906 249.351 72.3763 264.99 99.4641C280.629 126.552 270.832 165.093 241.983 205.637C213.163 246.142 165.44 288.471 105.637 322.999C45.8326 357.526 -14.687 377.691 -64.175 382.398C-113.711 387.109 -151.988 376.323 -167.627 349.235Z" stroke="white"/>
<path d="M-144.386 308.267C-150.127 298.323 -150.624 285.922 -146.518 271.952C-142.412 257.981 -133.715 242.485 -121.141 226.417C-95.9945 194.283 -55.4115 159.944 -5.34507 131.038C44.7213 102.132 94.7515 84.1557 135.153 78.4455C155.356 75.5901 173.124 75.8055 187.277 79.2356C201.428 82.6653 211.919 89.2959 217.66 99.2394C223.401 109.183 223.898 121.584 219.792 135.554C215.687 149.526 206.989 165.021 194.415 181.09C169.269 213.223 128.686 247.563 78.6193 276.468C28.5529 305.374 -21.4773 323.351 -61.8791 329.061C-82.0814 331.916 -99.8501 331.701 -114.003 328.271C-128.154 324.841 -138.645 318.21 -144.386 308.267Z" stroke="white"/>
<path d="M-153.957 326.74C-160.725 315.017 -161.742 300.667 -157.72 284.708C-153.696 268.745 -144.637 251.205 -131.304 233.157C-104.639 197.063 -60.9384 159.015 -6.51523 127.594C47.9079 96.1726 102.708 77.351 147.3 72.3057C169.596 69.7829 189.316 70.7073 205.152 75.204C220.984 79.6998 232.903 87.7556 239.671 99.4788C246.439 111.202 247.457 125.552 243.434 141.511C239.41 157.473 230.351 175.013 217.018 193.061C190.353 229.156 146.653 267.204 92.2296 298.625C37.8064 330.046 -16.9939 348.868 -61.5853 353.913C-83.8819 356.436 -103.602 355.511 -119.437 351.015C-135.27 346.519 -147.188 338.463 -153.957 326.74Z" stroke="white"/>
</svg>
